<?xml version="1.0" encoding="UTF-8"?><svg id="Layer_2" xmlns="http://www.w3.org/2000/svg" viewBox="0 0 266.46 156.64"><defs><style>.cls-1{fill:#fff;}</style></defs><g id="Layer_1-2"><g><g><path class="cls-1" d="M151.22,39.94c0,6.9-4.78,10.59-16.31,10.59-3.4,0-8.08-.25-9.8-.54V15.75c2.36-.3,5.72-.49,8.92-.49,11.33,0,15.27,2.81,15.27,8.38,0,3.65-1.23,6.06-4.78,7.79,4.63,1.23,6.7,4.04,6.7,8.52Zm-18.58-18.28v8.23l2.56,.05c4.83-.1,6.36-2.17,6.36-4.53,0-2.56-1.58-3.89-6.26-3.89-.84,0-1.77,.05-2.66,.15Zm10.4,17.74c0-3.4-2.17-4.68-6.75-4.68-1.13,0-2.41,.05-3.65,.15v9.12c1.23,.1,2.41,.15,3.45,.15,4.63,0,6.95-1.58,6.95-4.73Z"/><path class="cls-1" d="M180.68,45.06v4.34c-.94,.79-2.81,1.08-4.39,1.08-3.05,0-4.68-1.38-5.32-3.55-1.82,2.46-5.07,3.6-7.93,3.6-4.43,0-7.83-2.27-7.83-7.14,0-4.19,2.17-6.21,7.14-7l8.08-1.43v-1.82c0-2.81-1.48-3.89-3.99-3.89s-3.5,.94-3.5,2.32c0,.39,.1,.99,.3,1.23h-6.6c-.3-.59-.44-1.43-.44-2.12,0-3.94,3.3-6.26,10.54-6.26s11.53,2.76,11.53,9.36v9.71c0,1.43,.44,1.77,1.33,1.77,.3,0,.84-.05,1.08-.2Zm-10.25-2.27v-3.79l-4.88,.99c-2.02,.39-2.81,1.13-2.81,2.66s.99,2.71,2.86,2.71c1.58,0,3.25-.69,4.83-2.56Z"/><path class="cls-1" d="M206.11,30.04c0,1.08-.25,1.82-.49,2.22h-6.75c.05-.25,.1-.54,.1-.89,0-1.28-.84-2.22-3.5-2.22-2.46,0-3.89,.89-3.89,2.41,0,1.08,.59,1.72,2.17,2.17l5.86,1.33c4.83,1.04,7.29,2.81,7.29,6.85,0,5.37-4.09,8.62-12.12,8.62-6.26,0-10.69-1.58-10.69-6.5,0-.69,.1-1.33,.44-1.87l6.75,.05c-.05,.2-.1,.49-.1,.84,0,1.63,1.38,2.46,3.74,2.46s3.74-1.03,3.74-2.71c0-1.33-.79-1.87-2.86-2.41l-5.42-1.23c-4.43-.84-6.16-3.3-6.16-6.7,0-5.03,4.19-8.03,11.78-8.03,5.96,0,10.1,1.77,10.1,5.62Z"/><path class="cls-1" d="M234.34,41.86c.1,.15,.15,.69,.15,1.23,0,3.65-3.35,7.44-10.74,7.44-8.47,0-13.35-5.52-13.35-13.01,.05-7.83,4.78-13.11,13.4-13.11,7.39,0,10.99,4.68,10.99,9.81,0,1.08-.15,3-.35,3.99h-16.06c.2,4.04,2.07,6.65,5.47,6.65,2.91,0,4.09-1.43,4.09-2.66,0-.15,0-.3-.05-.34h6.45Zm-15.72-7.74h9.12c.05-.15,.1-.39,.1-.79,0-2.61-1.43-3.99-4.04-3.99s-4.48,1.58-5.17,4.78Z"/><path class="cls-1" d="M263.6,42.6c0,2.66,.2,4.19,.84,6.6l-5.67,1.33c-1.08-.89-1.72-1.97-1.97-3.3h-.25c-1.43,2.02-4.14,3.3-7.64,3.3-5.86,0-9.85-4.78-9.85-13.11,0-8.92,5.17-13.01,12.37-13.01,1.63,0,3.01,.25,4.29,.69V12.84h7.88v29.76Zm-7.83-.59v-11.38c-.84-.39-1.92-.64-3.01-.64-3.7,0-5.76,2.32-5.76,7.29,0,4.63,1.82,7.39,4.63,7.39,1.82,0,3.25-.89,4.14-2.66Z"/><path class="cls-1" d="M124.47,66.92v-7.44h7.83v7.44h-7.83Zm0,29.76v-25.18h7.83v25.18h-7.83Z"/><path class="cls-1" d="M162.36,78.89v17.79h-7.83v-16.01c0-2.27-.89-3.1-3.01-3.1-1.68,0-3.4,.74-4.68,2.66v16.46h-7.83v-15.18c0-4.58-.25-7.19-.99-9.56l7.14-.84c.59,1.18,1.18,2.91,1.28,4.34,1.92-3.15,4.39-4.34,8.23-4.34,5.52,0,7.69,2.51,7.69,7.78Z"/><path class="cls-1" d="M210.44,96.38v.3h-9.26c-2.46-3.65-4.68-7.98-6.7-12.42l-1.03,.05c-1.03,0-2.12-.1-3.05-.25v12.61h-8.08V62.38c3.15-.3,6.55-.49,9.71-.49,10.45,0,14.98,3.4,14.98,10.79,0,4.58-2.27,7.93-5.72,9.81,2.51,4.78,5.57,9.41,9.16,13.89Zm-11.53-23.26c0-3.6-2.27-4.83-6.16-4.83-.89,0-1.68,.05-2.37,.15v9.81c.74,.15,1.72,.2,2.81,.2,3.7,0,5.72-2.12,5.72-5.32Z"/><path class="cls-1" d="M214.28,66.92v-7.44h7.83v7.44h-7.83Zm0,29.76v-25.18h7.83v25.18h-7.83Z"/><path class="cls-1" d="M253.25,84.16c0,8.13-4.68,13.01-12.96,13.01s-13.01-4.88-13.01-13.01,4.68-13.11,13.01-13.11,12.96,5.03,12.96,13.11Zm-18.23-.05c0,4.48,1.68,7.14,5.27,7.14s5.22-2.66,5.22-7.14-1.68-7.09-5.22-7.09-5.27,2.61-5.27,7.09Z"/><path class="cls-1" d="M266.46,96.87c0,4.58-2.22,7.39-7.19,7.44v-3.15c2.17-.05,3.3-1.18,3.3-3.5v-.99h-3.15v-7.05h7.05v7.24Z"/><path class="cls-1" d="M151.22,133.21c0,6.9-4.78,10.59-16.31,10.59-3.4,0-8.08-.25-9.8-.54v-34.24c2.36-.3,5.72-.49,8.92-.49,11.33,0,15.27,2.81,15.27,8.38,0,3.65-1.23,6.06-4.78,7.79,4.63,1.23,6.7,4.04,6.7,8.52Zm-18.58-18.28v8.23l2.56,.05c4.83-.1,6.36-2.17,6.36-4.53,0-2.56-1.58-3.89-6.26-3.89-.84,0-1.77,.05-2.66,.15Zm10.4,17.74c0-3.4-2.17-4.68-6.75-4.68-1.13,0-2.41,.05-3.65,.15v9.12c1.23,.1,2.41,.15,3.45,.15,4.63,0,6.95-1.58,6.95-4.73Z"/><path class="cls-1" d="M172.6,118.08l-.05,7.19c-.79-.54-2.02-.79-3.15-.79-2.17,0-3.89,1.33-5.07,5.42v13.4h-7.83v-18.82c0-2.07-.2-3.6-.89-5.62l6.31-1.13c.99,1.43,1.63,3.35,1.68,5.67,1.13-3.89,3.15-5.67,6.31-5.67,1.08,0,2.12,.15,2.71,.34Z"/><path class="cls-1" d="M200.88,138.33v4.34c-.94,.79-2.81,1.08-4.39,1.08-3.05,0-4.68-1.38-5.32-3.55-1.82,2.46-5.07,3.6-7.93,3.6-4.43,0-7.83-2.27-7.83-7.14,0-4.19,2.17-6.21,7.14-7l8.08-1.43v-1.82c0-2.81-1.48-3.89-3.99-3.89s-3.5,.94-3.5,2.32c0,.39,.1,.99,.3,1.23h-6.6c-.3-.59-.44-1.43-.44-2.12,0-3.94,3.3-6.26,10.54-6.26s11.53,2.76,11.53,9.36v9.71c0,1.43,.44,1.77,1.33,1.77,.3,0,.84-.05,1.08-.2Zm-10.25-2.27v-3.79l-4.88,.99c-2.02,.39-2.81,1.13-2.81,2.66s.99,2.71,2.86,2.71c1.58,0,3.25-.69,4.83-2.56Z"/><path class="cls-1" d="M213.4,137.54h11.14l.3,5.76h-20.79v-3.01l11.68-16.41h-11.18l.54-5.76h19.95v3.2l-11.63,16.21Z"/><path class="cls-1" d="M230,113.55v-7.44h7.83v7.44h-7.83Zm0,29.76v-25.18h7.83v25.18h-7.83Z"/><path class="cls-1" d="M252.07,134.98c0,1.68,.69,2.37,2.12,2.37,.74,0,1.48-.15,1.97-.34v5.96c-.79,.49-2.12,.84-4.04,.84-5.42,0-7.88-2.76-7.88-7.24v-30.45h7.83v28.87Z"/></g><path class="cls-1" d="M54.3,0C24.31,0,0,24.31,0,54.3c0,32.75,46.03,97.83,46.03,97.83,3.79,5.8,12.19,6.06,16.34,.52,0,0,46.23-68.09,46.23-98.34C108.6,24.31,84.29,0,54.3,0Zm0,82.17c-15.97,0-28.92-12.95-28.92-28.92,0-15.97,12.95-28.92,28.92-28.92,15.97,0,28.92,12.95,28.92,28.92,0,15.97-12.95,28.92-28.92,28.92Z"/></g></g></svg>