<?xml version="1.0" encoding="UTF-8"?><svg id="Layer_2" xmlns="http://www.w3.org/2000/svg" viewBox="0 0 39.01 24.44"><defs><style>.cls-1{fill:#fff;}</style></defs><g id="Layer_1-2"><g><path class="cls-1" d="M11.31,0c1.15,0,2.18,.1,3.13,.3,.94,.2,1.74,.53,2.42,.99,.67,.46,1.19,1.06,1.57,1.83,.37,.75,.55,1.7,.55,2.81,0,1.21-.27,2.22-.82,3.02-.55,.81-1.36,1.47-2.45,1.98,1.48,.42,2.57,1.17,3.3,2.23,.73,1.07,1.09,2.35,1.09,3.85,0,1.22-.23,2.26-.7,3.15-.47,.89-1.11,1.61-1.9,2.17-.79,.56-1.71,.98-2.73,1.24-1.01,.27-2.06,.4-3.14,.4H0V0H11.31Zm-.68,9.69c.94,0,1.71-.22,2.32-.67,.61-.44,.9-1.18,.9-2.18,0-.56-.1-1.02-.29-1.38-.2-.36-.47-.64-.81-.83-.34-.2-.72-.35-1.16-.42-.44-.09-.89-.12-1.36-.12H5.28v5.61h5.35Zm.29,10.21c.52,0,1.02-.05,1.48-.15,.47-.1,.89-.27,1.24-.51,.35-.23,.65-.55,.86-.96,.21-.4,.32-.92,.32-1.56,0-1.24-.35-2.11-1.04-2.65-.69-.52-1.62-.79-2.75-.79H5.28v6.61h5.64Z"/><path class="cls-1" d="M27.62,19.83c.71,.7,1.75,1.05,3.09,1.05,.96,0,1.79-.24,2.49-.73,.69-.48,1.11-1,1.27-1.54h4.2c-.68,2.09-1.7,3.58-3.1,4.48-1.38,.9-3.07,1.35-5.03,1.35-1.37,0-2.6-.22-3.71-.66-1.11-.44-2.03-1.06-2.81-1.87-.76-.81-1.35-1.77-1.76-2.9-.41-1.12-.62-2.36-.62-3.7s.22-2.51,.64-3.63c.43-1.12,1.03-2.1,1.82-2.91,.79-.82,1.73-1.46,2.81-1.94,1.09-.47,2.29-.71,3.62-.71,1.47,0,2.76,.28,3.86,.86,1.1,.57,2,1.34,2.71,2.3,.71,.96,1.21,2.06,1.53,3.3,.31,1.23,.42,2.52,.33,3.87h-12.54c0,1.37,.46,2.67,1.18,3.37Zm5.48-9.13c-.57-.63-1.53-.97-2.7-.97-.76,0-1.39,.13-1.9,.39-.49,.26-.9,.58-1.21,.96-.31,.38-.52,.79-.64,1.22-.12,.42-.2,.81-.22,1.14h7.76c-.11-1.22-.53-2.12-1.1-2.75Z"/><rect class="cls-1" x="25.46" y="1.61" width="9.73" height="2.37"/></g></g></svg>