<?xml version="1.0" encoding="UTF-8"?><svg id="Layer_2" xmlns="http://www.w3.org/2000/svg" viewBox="0 0 42.4 42.4"><defs><style>.cls-1{fill:#fff;fill-rule:evenodd;}</style></defs><g id="Layer_1-2"><path class="cls-1" d="M21.2,0C9.5,0,0,9.5,0,21.2s9.5,21.2,21.2,21.2,21.2-9.5,21.2-21.2S32.88,0,21.2,0Zm14,9.77c2.53,3.08,4.05,7.01,4.09,11.27-.6-.11-6.58-1.33-12.6-.57-.14-.3-.25-.62-.39-.94-.37-.87-.78-1.77-1.2-2.62,6.67-2.71,9.7-6.62,10.09-7.13ZM21.2,3.13c4.6,0,8.81,1.72,12,4.55-.32,.46-3.06,4.12-9.5,6.53-2.97-5.45-6.25-9.91-6.76-10.6,1.36-.32,2.78-.48,4.25-.48Zm-7.7,1.7c.48,.64,3.7,5.13,6.71,10.46-8.46,2.25-15.93,2.21-16.74,2.21,1.17-5.61,4.97-10.28,10.02-12.67ZM3.08,21.22v-.55c.78,.02,9.56,.14,18.6-2.58,.53,1.01,1.01,2.05,1.47,3.08-.23,.07-.48,.14-.71,.21-9.33,3.01-14.3,11.24-14.71,11.93-2.87-3.2-4.64-7.45-4.64-12.09Zm18.12,18.09c-4.18,0-8.05-1.43-11.11-3.82,.32-.67,4-7.75,14.21-11.31,.05-.02,.07-.02,.11-.05,2.55,6.6,3.59,12.14,3.86,13.73-2.18,.94-4.58,1.45-7.08,1.45Zm10.09-3.1c-.18-1.1-1.15-6.39-3.52-12.9,5.68-.9,10.65,.57,11.27,.78-.78,5.04-3.68,9.38-7.75,12.12Z"/></g></svg>