<?xml version="1.0" encoding="UTF-8"?><svg id="Layer_2" xmlns="http://www.w3.org/2000/svg" viewBox="0 0 36.04 36.04"><defs><style>.cls-1{fill:#fff;}</style></defs><g id="Layer_1-2"><g><path class="cls-1" d="M18.02,3.25c4.81,0,5.38,.02,7.28,.11,1.76,.08,2.71,.37,3.35,.62,.84,.33,1.44,.72,2.07,1.35,.63,.63,1.02,1.23,1.35,2.07,.25,.63,.54,1.59,.62,3.35,.09,1.9,.11,2.47,.11,7.28s-.02,5.38-.11,7.28c-.08,1.76-.37,2.71-.62,3.35-.33,.84-.72,1.44-1.35,2.07-.63,.63-1.23,1.02-2.07,1.35-.63,.25-1.59,.54-3.35,.62-1.9,.09-2.47,.11-7.28,.11s-5.38-.02-7.28-.11c-1.76-.08-2.71-.37-3.35-.62-.84-.33-1.44-.72-2.07-1.35-.63-.63-1.02-1.23-1.35-2.07-.25-.63-.54-1.59-.62-3.35-.09-1.9-.11-2.47-.11-7.28s.02-5.38,.11-7.28c.08-1.76,.37-2.71,.62-3.35,.33-.84,.72-1.44,1.35-2.07,.63-.63,1.23-1.02,2.07-1.35,.63-.25,1.59-.54,3.35-.62,1.9-.09,2.47-.11,7.28-.11m0-3.25c-4.89,0-5.51,.02-7.43,.11-1.92,.09-3.23,.39-4.37,.84-1.18,.46-2.19,1.08-3.19,2.08-1,1-1.62,2.01-2.08,3.19-.45,1.15-.75,2.46-.84,4.37-.09,1.92-.11,2.54-.11,7.43s.02,5.51,.11,7.43c.09,1.92,.39,3.23,.84,4.37,.46,1.18,1.08,2.19,2.08,3.19,1,1,2.01,1.62,3.19,2.08,1.15,.45,2.46,.75,4.37,.84,1.92,.09,2.54,.11,7.43,.11s5.51-.02,7.43-.11c1.92-.09,3.23-.39,4.37-.84,1.18-.46,2.19-1.08,3.19-2.08,1-1,1.62-2.01,2.08-3.19,.45-1.15,.75-2.46,.84-4.37,.09-1.92,.11-2.54,.11-7.43s-.02-5.51-.11-7.43c-.09-1.92-.39-3.23-.84-4.37-.46-1.18-1.08-2.19-2.08-3.19-1-1-2.01-1.62-3.19-2.08-1.15-.45-2.46-.75-4.37-.84-1.92-.09-2.54-.11-7.43-.11h0Z"/><path class="cls-1" d="M18.02,8.77c-5.11,0-9.25,4.14-9.25,9.25s4.14,9.25,9.25,9.25,9.25-4.14,9.25-9.25-4.14-9.25-9.25-9.25Zm0,15.26c-3.32,0-6.01-2.69-6.01-6.01s2.69-6.01,6.01-6.01,6.01,2.69,6.01,6.01-2.69,6.01-6.01,6.01Z"/><circle class="cls-1" cx="27.64" cy="8.4" r="2.16"/></g></g></svg>