<?xml version="1.0" encoding="UTF-8"?><svg id="Layer_2" xmlns="http://www.w3.org/2000/svg" viewBox="0 0 33.92 33.82"><defs><style>.cls-1{fill:#fff;}</style></defs><g id="Layer_1-2"><g><path class="cls-1" d="M18.73,14.28c.47-.53,.86-1.06,1.34-1.52,1.48-1.4,3.24-2.1,5.29-2.09,1.13,0,2.24,.09,3.33,.4,2.48,.72,3.93,2.43,4.62,4.85,.52,1.82,.61,3.69,.61,5.56,0,3.95-.01,7.91,0,11.86,0,.37-.1,.47-.47,.46-2.04-.02-4.07-.02-6.11,0-.36,0-.44-.11-.43-.45,.01-3.76,.01-7.52,0-11.28,0-.94-.06-1.88-.33-2.8-.49-1.69-1.7-2.55-3.46-2.46-2.41,.13-3.67,1.32-3.98,3.78-.07,.59-.11,1.17-.11,1.76,0,3.66,0,7.32,0,10.98,0,.36-.09,.47-.46,.47-2.05-.02-4.1-.02-6.15,0-.33,0-.42-.09-.42-.42,0-7.24,0-14.49,0-21.73,0-.36,.12-.44,.46-.44,1.95,.01,3.9,.02,5.84,0,.36,0,.45,.11,.44,.45-.02,.87,0,1.73,0,2.6Z"/><path class="cls-1" d="M7.57,22.56c0,3.58,0,7.17,0,10.75,0,.4-.1,.52-.51,.51-2.04-.02-4.07-.02-6.11,0-.33,0-.42-.08-.42-.42,0-7.25,0-14.51,0-21.76,0-.3,.07-.41,.39-.41,2.07,.01,4.13,.02,6.2,0,.4,0,.45,.15,.45,.49,0,3.61,0,7.23,0,10.84Z"/><path class="cls-1" d="M8.13,4.05c0,2.25-1.82,4.08-4.07,4.08C1.85,8.13,0,6.3,0,4.08,0,1.84,1.83,0,4.07,0c2.22,0,4.06,1.83,4.06,4.05Z"/></g></g></svg>