<?xml version="1.0" encoding="UTF-8"?><svg id="Layer_2" xmlns="http://www.w3.org/2000/svg" viewBox="0 0 339.58 127.34"><defs><style>.cls-1{fill:#db71bc;}.cls-2{fill:#54e1ff;}</style></defs><g id="Layer_1-2"><g><rect class="cls-2" width="339.58" height="127.34" rx="10" ry="10"/><g><path class="cls-1" d="M123.54,50.44c0,1.67,.69,2.36,2.11,2.36,.74,0,1.47-.15,1.96-.34v5.94c-.79,.49-2.11,.83-4.02,.83-5.4,0-7.85-2.75-7.85-7.21V21.68h7.8v28.76Z"/><path class="cls-1" d="M157,46.27c0,8.1-4.66,12.96-12.91,12.96s-12.96-4.86-12.96-12.96,4.66-13.05,12.96-13.05,12.91,5.01,12.91,13.05Zm-18.16-.05c0,4.47,1.67,7.12,5.25,7.12s5.2-2.65,5.2-7.12-1.67-7.07-5.2-7.07-5.25,2.6-5.25,7.07Z"/><path class="cls-1" d="M178.15,54.71c6.33,.54,8.74,2.99,8.74,7.21,0,5.69-4.86,8.83-13.94,8.83-8.15,0-12.32-2.55-12.32-7.46,0-2.36,1.03-4.22,3.39-5.64-1.03-.88-1.62-2.11-1.62-3.78,0-2.26,1.13-3.68,2.55-4.76-2.31-1.67-3.53-4.12-3.53-7.07,0-5.45,4.37-8.83,11.48-8.83,1.62,0,3.14,.2,4.46,.49,1.03-4.12,3.29-5.99,7.95-5.99v5.45c-2.5,0-3.83,.49-4.81,1.86,2.5,1.52,3.93,3.93,3.93,7.02,0,5.45-4.22,9.23-11.53,9.23-1.62,0-3.04-.2-4.37-.54-.25,.39-.39,.79-.39,1.32,0,1.28,1.03,1.91,3.19,2.11l6.82,.54Zm1.67,7.7c0-1.23-.79-2.01-3.58-2.31l-6.53-.59-.29-.05c-1.87,.93-2.45,1.86-2.45,3.19-.05,2.11,1.91,3.29,6.38,3.29,4.17,0,6.48-1.32,6.48-3.53Zm-11.24-20.22c0,2.4,1.57,4.22,4.37,4.22,2.99,0,4.42-1.91,4.42-4.17,0-2.55-1.57-4.17-4.42-4.17s-4.37,1.62-4.37,4.12Z"/><path class="cls-1" d="M214.36,46.27c0,8.1-4.66,12.96-12.91,12.96s-12.96-4.86-12.96-12.96,4.66-13.05,12.96-13.05,12.91,5.01,12.91,13.05Zm-18.16-.05c0,4.47,1.67,7.12,5.25,7.12s5.2-2.65,5.2-7.12-1.67-7.07-5.2-7.07-5.25,2.6-5.25,7.07Z"/></g><g><path class="cls-1" d="M96.53,76.94l-.05,7.16c-.79-.54-2.01-.79-3.14-.79-2.16,0-3.88,1.32-5.05,5.4v13.35h-7.8v-18.75c0-2.06-.2-3.58-.88-5.59l6.28-1.13c.98,1.42,1.62,3.34,1.67,5.64,1.13-3.88,3.14-5.64,6.28-5.64,1.08,0,2.11,.15,2.7,.34Z"/><path class="cls-1" d="M123.32,93.91c.1,.15,.15,.69,.15,1.23,0,3.63-3.34,7.41-10.7,7.41-8.44,0-13.3-5.5-13.3-12.96,.05-7.8,4.76-13.05,13.35-13.05,7.36,0,10.94,4.66,10.94,9.77,0,1.08-.15,2.99-.34,3.97h-16c.2,4.02,2.06,6.62,5.45,6.62,2.9,0,4.07-1.42,4.07-2.65,0-.15,0-.29-.05-.34h6.43Zm-15.65-7.7h9.08c.05-.15,.1-.39,.1-.79,0-2.6-1.42-3.97-4.02-3.97s-4.47,1.57-5.15,4.76Z"/><path class="cls-1" d="M152.47,94.65c0,2.65,.2,4.17,.83,6.58l-5.64,1.32c-1.08-.88-1.72-1.96-1.96-3.29h-.25c-1.42,2.01-4.12,3.29-7.61,3.29-5.84,0-9.81-4.76-9.81-13.05,0-8.88,5.15-12.96,12.32-12.96,1.62,0,2.99,.25,4.27,.69v-12.22h7.85v29.64Zm-7.8-.59v-11.34c-.83-.39-1.91-.64-2.99-.64-3.68,0-5.74,2.31-5.74,7.26,0,4.61,1.82,7.36,4.61,7.36,1.82,0,3.24-.88,4.12-2.65Z"/><path class="cls-1" d="M181.66,93.91c.1,.15,.15,.69,.15,1.23,0,3.63-3.34,7.41-10.7,7.41-8.44,0-13.3-5.5-13.3-12.96,.05-7.8,4.76-13.05,13.35-13.05,7.36,0,10.94,4.66,10.94,9.77,0,1.08-.15,2.99-.34,3.97h-16c.2,4.02,2.06,6.62,5.45,6.62,2.9,0,4.07-1.42,4.07-2.65,0-.15,0-.29-.05-.34h6.43Zm-15.65-7.7h9.08c.05-.15,.1-.39,.1-.79,0-2.6-1.42-3.97-4.02-3.97s-4.47,1.57-5.15,4.76Z"/><path class="cls-1" d="M208.01,82.14c0,1.08-.25,1.82-.49,2.21h-6.72c.05-.25,.1-.54,.1-.88,0-1.28-.83-2.21-3.48-2.21-2.45,0-3.88,.88-3.88,2.4,0,1.08,.59,1.72,2.16,2.16l5.84,1.32c4.81,1.03,7.26,2.8,7.26,6.82,0,5.35-4.07,8.59-12.07,8.59-6.23,0-10.65-1.57-10.65-6.48,0-.69,.1-1.32,.44-1.86l6.72,.05c-.05,.2-.1,.49-.1,.83,0,1.62,1.37,2.45,3.73,2.45s3.73-1.03,3.73-2.7c0-1.32-.79-1.86-2.85-2.4l-5.4-1.23c-4.42-.83-6.13-3.29-6.13-6.67,0-5.01,4.17-8,11.73-8,5.94,0,10.06,1.77,10.06,5.59Z"/><path class="cls-1" d="M213.5,72.42v-7.41h7.8v7.41h-7.8Zm0,29.64v-25.08h7.8v25.08h-7.8Z"/><path class="cls-1" d="M243.93,98.04c6.33,.54,8.73,2.99,8.73,7.21,0,5.69-4.86,8.83-13.94,8.83-8.15,0-12.32-2.55-12.32-7.46,0-2.36,1.03-4.22,3.39-5.64-1.03-.88-1.62-2.11-1.62-3.78,0-2.26,1.13-3.68,2.55-4.76-2.31-1.67-3.53-4.12-3.53-7.07,0-5.45,4.37-8.83,11.48-8.83,1.62,0,3.14,.2,4.47,.49,1.03-4.12,3.29-5.99,7.95-5.99v5.45c-2.5,0-3.83,.49-4.81,1.86,2.5,1.52,3.93,3.93,3.93,7.02,0,5.45-4.22,9.23-11.53,9.23-1.62,0-3.04-.2-4.37-.54-.25,.39-.39,.79-.39,1.32,0,1.28,1.03,1.91,3.19,2.11l6.82,.54Zm1.67,7.7c0-1.23-.79-2.01-3.58-2.31l-6.53-.59-.29-.05c-1.86,.93-2.45,1.86-2.45,3.19-.05,2.11,1.91,3.29,6.38,3.29,4.17,0,6.48-1.32,6.48-3.53Zm-11.24-20.22c0,2.4,1.57,4.22,4.37,4.22,2.99,0,4.42-1.91,4.42-4.17,0-2.55-1.57-4.17-4.42-4.17s-4.37,1.62-4.37,4.12Z"/><path class="cls-1" d="M279.89,84.35v17.72h-7.8v-15.95c0-2.26-.88-3.09-2.99-3.09-1.67,0-3.39,.74-4.66,2.65v16.39h-7.8v-15.11c0-4.56-.25-7.16-.98-9.52l7.12-.83c.59,1.18,1.18,2.9,1.28,4.32,1.91-3.14,4.37-4.32,8.19-4.32,5.5,0,7.66,2.5,7.66,7.75Z"/></g></g></g></svg>