<?xml version="1.0" encoding="UTF-8"?><svg id="Layer_2" xmlns="http://www.w3.org/2000/svg" xmlns:xlink="http://www.w3.org/1999/xlink" viewBox="0 0 405.6 185.06"><defs><style>.cls-1{fill:url(#linear-gradient-2);}.cls-2{fill:#fff;}.cls-3{fill:url(#linear-gradient);}</style><linearGradient id="linear-gradient" x1="390.88" y1="2.57" x2="390.88" y2="126.97" gradientUnits="userSpaceOnUse"><stop offset="0" stop-color="#fff" stop-opacity="0"/><stop offset="1" stop-color="#f8f8f8"/></linearGradient><linearGradient id="linear-gradient-2" x1="14.72" y1="2.57" x2="14.72" y2="126.97" xlink:href="#linear-gradient"/></defs><g id="Layer_1-2"><g><g><path class="cls-2" d="M203.25,132.57c-28.4,0-51.96-23.56-51.96-53.08V15.08c0-8.45,6.9-14.98,15.03-14.98s14.41,6.53,14.41,14.98V79.49c0,12.65,9.9,22.94,22.07,22.94s22.07-10.29,22.07-22.94V15.08c0-8.45,6.81-15.08,14.94-15.08s14.5,6.63,14.5,15.08V79.49c0,29.52-22.66,53.08-51.06,53.08Z"/><path class="cls-3" d="M390.88,132.45c-8.13,0-14.72-6.73-14.72-15.04V15.05C376.16,6.74,382.75,.01,390.88,.01s14.72,6.73,14.72,15.04V117.41c0,8.3-6.59,15.04-14.72,15.04Z"/><path class="cls-1" d="M14.72,132.45c-8.13,0-14.72-6.73-14.72-15.04V15.05C0,6.74,6.59,.01,14.72,.01s14.72,6.73,14.72,15.04V117.41c0,8.3-6.59,15.04-14.72,15.04Z"/><path class="cls-2" d="M105.05,132.57c1.78,0,3.58-.34,5.31-1.03,5.67-2.28,9.41-7.94,9.41-14.25V14.96c0-8.44-7.03-14.82-15.16-14.82-8.13,0-14.28,6.38-14.28,14.82v62.84S26.2,4.67,26.2,4.67C20.73-1.57,10.14-.42,5.41,3.66c-7.64,6.58-6.45,15.35-.98,21.59L94.16,127.58c2.85,3.24,6.82,5,10.89,5Z"/><path class="cls-2" d="M300.55,132.57c-1.78,0-3.58-.34-5.31-1.03-5.67-2.28-9.41-7.94-9.41-14.25V14.96c0-8.44,7.03-14.82,15.16-14.82s14.28,6.38,14.28,14.82v62.84L379.4,4.67c5.47-6.24,16.06-5.09,20.79-1.01,7.64,6.58,6.45,15.35,.98,21.59l-89.73,102.33c-2.85,3.24-6.82,5-10.89,5Z"/></g><g><path class="cls-2" d="M103.69,166.35c0,.62-.19,1.25-.37,1.53h-2.71c.13-.22,.19-.56,.19-.81,0-1.18-1.21-1.87-3.36-1.87-2.4,0-4.17,.96-4.17,3.02,0,1.59,1.03,2.34,2.77,3.36l4.36,2.33c2.93,1.59,4.08,2.96,4.08,5.26,0,3.74-2.77,5.88-7.72,5.88-4.48,0-6.94-1.9-6.94-4.79,0-.65,.12-1.15,.25-1.43h2.83c-.09,.19-.12,.62-.12,1,0,1.74,1.77,2.71,4.2,2.71,2.65,0,4.36-1.18,4.36-3.21,0-1.21-.56-2.02-2.71-3.27l-4.33-2.33c-2.52-1.28-4.2-2.65-4.2-5.42,0-3.49,2.9-5.48,7.6-5.48,4.17,0,6.01,1.46,6.01,3.52Z"/><path class="cls-2" d="M140.45,184.78h-3.05v-18.96h-6.66l.25-2.71h15.97l.12,2.71h-6.63v18.96Z"/><path class="cls-2" d="M190.6,177.12c0,5.08-2.77,7.91-8.13,7.91s-8.06-2.83-8.06-7.91v-14.01h2.99v13.98c0,3.46,1.71,5.32,5.08,5.32s5.04-1.87,5.01-5.32l-.06-13.98h3.18v14.01Z"/><path class="cls-2" d="M236.08,173.7c0,7.75-4.36,11.36-11.55,11.36-1.74,0-3.71-.12-5.2-.47v-21.45c1.46-.19,3.39-.31,5.01-.31,7.5,0,11.74,2.99,11.74,10.87Zm-13.73-7.97v16.34c.81,.09,1.74,.16,2.65,.16,5.01,0,8.03-2.4,8.03-8.5s-3.08-8.19-8.25-8.19c-.97,0-1.81,.06-2.43,.19Z"/><path class="cls-2" d="M264.74,184.78v-21.67h3.05v21.67h-3.05Z"/><path class="cls-2" d="M315.79,173.95c0,7.22-3.67,11.11-9.68,11.11s-9.68-3.89-9.68-11.11,3.67-11.11,9.68-11.11,9.68,3.86,9.68,11.11Zm-16.22-.03c0,5.82,2.43,8.62,6.54,8.62s6.54-2.8,6.54-8.62-2.46-8.56-6.54-8.56-6.54,2.8-6.54,8.56Z"/></g></g></g></svg>