<?xml version="1.0" encoding="UTF-8"?><svg id="Layer_2" xmlns="http://www.w3.org/2000/svg" viewBox="0 0 176.83 65.12"><defs><style>.cls-1{fill:#fff;}</style></defs><g id="Layer_1-2"><g><path class="cls-1" d="M58.46,48.23h-4.14l-.94-1.09c-1.3,.89-3.13,1.35-5.42,1.35-4.7,0-7.04-1.5-7.04-4.83,0-1.75,.61-2.8,1.93-3.94l1.12-.97c-1.02-1.04-1.63-2.08-1.63-3.71,0-2.95,2.19-4.75,6.56-4.75,4.12,0,6.13,1.25,6.13,3.38,0,.56-.08,1.02-.3,1.55h-3.66c.05-.15,.08-.46,.08-.61,0-.79-.66-1.27-2.26-1.27-1.78,0-2.64,.61-2.64,1.93,0,.97,.71,1.6,1.88,2.72l4.35,4.04v-3.36h3.41v3.31c0,1.07-.18,2.03-.56,2.85l3.15,3.25v.15Zm-10.32-2.64c1.27,0,2.31-.23,3.05-.76l-.48-.48-4.02-3.92-.69,.58c-.89,.76-1.32,1.3-1.32,2.29,0,1.47,1.04,2.29,3.46,2.29Z"/><path class="cls-1" d="M24.44,27.66l-1.25-12.82c-.07-.77-.07-1.43-.04-2.27l-.18-.04-.95,2.31-4.98,11.06h-3.7l-4.84-11.06-.99-2.31-.22,.04c.04,.81,0,1.43-.07,2.27l-1.43,12.82H0L3.15,2.13H7.8l6.56,14.55c.37,.77,.77,1.8,.88,2.78h.18c.18-.99,.55-2.02,.92-2.78L22.97,2.13h4.54l2.89,25.54h-5.97Z"/><path class="cls-1" d="M64.88,21.07c.04,1.43,.66,2.16,2.09,2.16,.73,0,1.47-.18,2.02-.4v4.4c-.66,.44-2.2,.81-4.07,.81-3.96,0-5.86-2.45-5.86-5.79V13.41h-3.41v-3.44l3.48-.95,1.69-5.57h4.07v5.5h4.95v4.47h-4.95v7.66Z"/><path class="cls-1" d="M73.78,5.53V0h5.83V5.53h-5.83Zm0,22.13V8.94h5.83V27.66h-5.83Z"/><path class="cls-1" d="M102.76,18.36c0,6.05-3.48,9.67-9.64,9.67s-9.67-3.63-9.67-9.67,3.48-9.75,9.67-9.75,9.64,3.74,9.64,9.75Zm-13.56-.04c0,3.33,1.25,5.31,3.92,5.31s3.88-1.98,3.88-5.31-1.25-5.28-3.88-5.28-3.92,1.94-3.92,5.28Z"/><path class="cls-1" d="M124.19,14.44v13.23h-5.83V15.75c0-1.69-.66-2.31-2.23-2.31-1.25,0-2.53,.55-3.48,1.98v12.24h-5.83v-11.28c0-3.41-.18-5.35-.73-7.11l5.31-.62c.44,.88,.88,2.16,.95,3.22,1.43-2.34,3.26-3.22,6.12-3.22,4.1,0,5.72,1.87,5.72,5.79Z"/><path class="cls-1" d="M53.41,18.36c0,6.05-3.48,9.67-9.64,9.67s-9.67-3.63-9.67-9.67,3.48-9.75,9.67-9.75,9.64,3.74,9.64,9.75Zm-13.56-.04c0,3.33,1.25,5.31,3.92,5.31s3.88-1.98,3.88-5.31-1.25-5.28-3.88-5.28-3.92,1.94-3.92,5.28Z"/><g><path class="cls-1" d="M82.32,43.06c0,8.68-5.06,13.45-14.51,13.45-2.42,0-5.13-.22-6.96-.62V30.72c1.98-.29,4.76-.44,6.85-.44,9.64,0,14.62,3.66,14.62,12.79Zm-15.46-7.44v15.35c.59,.07,1.21,.15,2.05,.15,4.87,0,7.33-2.49,7.33-8.02s-2.49-7.66-7.51-7.66c-.88,0-1.43,.07-1.87,.18Z"/><path class="cls-1" d="M103.49,50.06c.07,.11,.11,.51,.11,.92,0,2.71-2.49,5.53-7.99,5.53-6.3,0-9.93-4.1-9.93-9.67,.04-5.83,3.55-9.75,9.97-9.75,5.5,0,8.17,3.48,8.17,7.29,0,.81-.11,2.23-.26,2.97h-11.94c.15,3,1.54,4.95,4.07,4.95,2.16,0,3.04-1.06,3.04-1.98,0-.11,0-.22-.04-.26h4.8Zm-11.69-5.75h6.78c.04-.11,.07-.29,.07-.59,0-1.94-1.06-2.97-3-2.97s-3.33,1.17-3.85,3.55Z"/><path class="cls-1" d="M123.16,41.27c0,.81-.18,1.36-.37,1.65h-5.02c.04-.18,.07-.4,.07-.66,0-.95-.62-1.65-2.6-1.65-1.83,0-2.89,.66-2.89,1.8,0,.81,.44,1.28,1.61,1.61l4.36,.99c3.59,.77,5.42,2.09,5.42,5.09,0,3.99-3.04,6.41-9.01,6.41-4.65,0-7.95-1.17-7.95-4.84,0-.51,.07-.99,.33-1.39l5.02,.04c-.04,.15-.07,.37-.07,.62,0,1.21,1.03,1.83,2.78,1.83s2.78-.77,2.78-2.02c0-.99-.59-1.39-2.13-1.8l-4.03-.92c-3.3-.62-4.58-2.45-4.58-4.98,0-3.74,3.11-5.97,8.76-5.97,4.43,0,7.51,1.32,7.51,4.18Z"/><path class="cls-1" d="M127.26,34.01v-5.53h5.83v5.53h-5.83Zm0,22.13v-18.72h5.83v18.72h-5.83Z"/><path class="cls-1" d="M149.98,53.14c4.73,.4,6.52,2.23,6.52,5.39,0,4.25-3.63,6.59-10.41,6.59-6.08,0-9.2-1.91-9.2-5.57,0-1.76,.77-3.15,2.53-4.21-.77-.66-1.21-1.58-1.21-2.82,0-1.69,.84-2.75,1.91-3.55-1.72-1.25-2.64-3.08-2.64-5.28,0-4.07,3.26-6.59,8.57-6.59,1.21,0,2.34,.15,3.33,.37,.77-3.08,2.45-4.47,5.94-4.47v4.07c-1.87,0-2.86,.37-3.59,1.39,1.87,1.14,2.93,2.93,2.93,5.24,0,4.07-3.15,6.89-8.61,6.89-1.21,0-2.27-.15-3.26-.4-.18,.29-.29,.59-.29,.99,0,.95,.77,1.43,2.38,1.58l5.09,.4Zm1.25,5.75c0-.92-.59-1.5-2.67-1.72l-4.87-.44-.22-.04c-1.39,.7-1.83,1.39-1.83,2.38-.04,1.58,1.43,2.45,4.76,2.45,3.11,0,4.84-.99,4.84-2.64Zm-8.39-15.09c0,1.8,1.17,3.15,3.26,3.15,2.23,0,3.3-1.43,3.3-3.11,0-1.91-1.17-3.11-3.3-3.11s-3.26,1.21-3.26,3.08Z"/><path class="cls-1" d="M176.83,42.92v13.23h-5.83v-11.91c0-1.69-.66-2.31-2.23-2.31-1.25,0-2.53,.55-3.48,1.98v12.24h-5.83v-11.28c0-3.41-.18-5.35-.73-7.11l5.31-.62c.44,.88,.88,2.16,.95,3.22,1.43-2.34,3.26-3.22,6.12-3.22,4.1,0,5.72,1.87,5.72,5.79Z"/></g></g></g></svg>
